<?xml version="1.0" encoding="utf-8"?>
<svg viewBox="74.611 143.523 96.374 92.746" xmlns="http://www.w3.org/2000/svg">
  <ellipse style="stroke: rgb(0, 0, 0); fill: rgb(112, 106, 106);" cx="122.798" cy="189.896" rx="48.187" ry="46.373"/>
  <path fill="#FFF" d="M 122.703 153.453 C 120.814 153.453 120.497 153.477 119.242 153.806 C 117.694 154.216 116.79 154.732 115.734 155.8 C 115.195 156.328 114.925 156.669 114.666 157.103 C 114.021 158.217 113.599 159.485 113.341 161.197 C 113.2 162.031 113.188 162.336 113.2 164.4 C 113.2 166.571 113.459 173.188 113.611 175.171 C 113.716 176.485 113.669 176.625 112.567 178.162 C 112.18 178.702 111.64 179.489 111.37 179.911 C 110.631 181.049 109.586 182.516 108.73 183.642 C 107.146 185.683 106.747 186.434 105.75 189.144 C 104.788 191.796 104.201 193.11 102.782 195.867 C 102.054 197.251 101.866 197.838 101.831 198.823 C 101.784 199.669 101.901 200.842 102.031 201.053 C 102.136 201.193 102.266 201.229 102.523 201.158 C 102.488 201.193 102.465 201.217 102.442 201.229 C 102.031 201.498 101.561 202.074 101.268 202.801 C 101.256 202.813 101.256 202.837 101.244 202.848 C 101.139 203.012 101.022 203.294 100.881 203.728 C 100.458 204.925 100.107 205.452 99.473 205.793 C 98.933 206.086 98.452 206.157 97.044 206.157 C 95.589 206.157 95.272 206.227 94.839 206.603 C 94.064 207.26 93.947 208.562 94.475 210.369 C 94.956 212 94.932 212.751 94.31 214.58 C 93.97 215.59 93.924 215.801 93.924 216.235 C 93.924 216.564 93.959 216.81 94.029 216.962 C 94.181 217.279 94.662 217.666 95.132 217.866 C 95.66 218.065 98.312 218.722 100.212 219.098 C 103.157 219.696 104.213 220.013 106.946 221.104 C 109.376 222.066 110.407 222.418 111.229 222.547 C 111.616 222.605 112.414 222.536 112.777 222.395 C 113.212 222.242 113.623 221.96 114.526 221.197 C 116.122 219.86 116.99 219.438 118.773 219.156 C 119.442 219.051 120.052 219.039 125.156 219.039 C 128.253 219.039 130.987 219.063 131.233 219.098 C 131.808 219.168 132.031 219.356 132.512 220.201 C 133.251 221.526 134.155 222.113 135.797 222.36 C 136.571 222.476 137.897 222.488 138.508 222.395 C 139.845 222.172 140.513 221.773 142.027 220.259 C 143.787 218.487 145.43 217.373 147.741 216.364 C 148.914 215.847 149.442 215.554 150.827 214.616 C 152.528 213.466 152.857 213.102 152.857 212.351 C 152.857 211.565 152.434 211.073 150.873 210.04 C 149.384 209.054 148.715 208.456 148.093 207.541 C 147.659 206.896 147.506 206.403 147.447 205.441 C 147.424 204.995 147.377 204.69 147.319 204.502 C 147.26 203.833 146.99 203.071 146.509 202.825 C 145.84 202.472 145.606 202.578 145.382 202.719 C 146.133 201.875 146.38 201.475 146.626 200.748 C 147.06 199.457 146.966 198.014 146.216 194.259 C 145.347 189.895 143.869 186.775 140.818 182.856 C 138.883 180.357 138.097 179.113 136.208 175.57 C 135.269 173.798 134.999 173.188 134.776 172.238 C 134.448 170.865 134.295 169.633 134.049 166.125 C 133.814 162.852 133.65 161.502 133.345 160.364 C 132.536 157.267 130.106 154.921 126.716 153.946 C 125.273 153.536 124.651 153.453 122.703 153.453 Z" style=""/>
  <path fill="#f8bf11" d="M 129.909 172.814 C 129.909 174.451 127.959 174.796 127.014 175.382 C 126.133 176.198 121.068 178.499 119.725 178.499 C 117.567 178.043 114.939 174.822 114.6 172.683 C 114.6 171.438 116.184 170.441 117.071 169.626 C 117.951 168.811 118.968 168.041 120.702 168.367 C 122.046 168.367 124.145 169.006 125.025 169.822 C 126.786 170.408 129.909 170.786 129.909 172.814 Z M 94.415 216.541 C 96.42 217.454 101.091 218.621 102.734 218.817 C 103.836 219.273 111.112 220.969 112.787 220.969 C 115.271 219.208 115.682 216.541 114.985 213.842 C 111.888 208.842 109.495 202.289 103.705 200.033 C 103.126 200.321 102.649 201.096 102.441 201.227 C 102.023 201.494 101.561 202.075 101.267 202.798 C 100.96 203.554 100.68 204.48 100.339 205.83 C 99.67 207.173 96.939 205.96 95.068 206.938 C 94.386 209.005 95.55 214.103 94.415 216.541 Z M 148.307 208.881 C 149.559 209.904 151.521 210.667 152.408 212.369 C 150.719 214.383 149.265 215.094 147.127 216.112 C 144.193 217.506 142.355 218.817 141.011 219.73 C 139.668 220.903 136.552 221.62 135.137 221.425 C 134.244 220.838 133.24 213.712 133.566 211.384 C 133.566 210.146 132.047 205.184 134.479 202.159 C 136.832 201.709 138.853 203.861 140.347 205.328 C 141.578 204.5 143.528 203.228 145.001 202.908 C 145.484 202.798 145.504 202.296 146.514 202.824 C 146.997 203.078 147.277 203.874 147.329 204.552 C 147.414 205.647 147.524 207.968 148.307 208.881 Z" style=""/>
  <path d="M 111.229 222.533 C 110.408 222.403 109.371 222.076 106.946 221.099 C 104.208 219.99 103.158 219.73 100.211 219.077 C 98.314 218.751 95.653 218.067 95.134 217.858 C 94.664 217.67 94.175 217.278 94.026 216.959 C 93.956 216.815 93.919 216.561 93.919 216.235 C 93.919 215.792 93.967 215.596 94.308 214.585 C 94.929 212.747 94.959 211.998 94.476 210.367 C 93.942 208.561 94.067 207.258 94.837 206.599 C 95.272 206.227 95.589 206.162 97.04 206.162 C 98.452 206.162 98.928 206.091 99.474 205.791 C 100.103 205.445 100.458 204.924 100.875 203.724 C 101.142 202.948 101.318 202.642 101.487 202.642 C 101.625 202.642 101.742 202.98 101.742 203.392 C 101.742 203.756 101.331 205.295 101.129 205.693 C 100.914 206.123 100.62 206.455 100.282 206.651 C 99.651 207.022 98.435 207.12 97.101 206.918 C 96.249 206.781 95.76 206.814 95.434 207.01 C 94.952 207.303 94.873 207.961 95.223 208.777 C 95.901 210.348 96.031 210.687 96.174 211.215 C 96.344 211.848 96.372 212.401 96.265 213.06 C 96.158 213.712 95.971 214.123 95.417 214.899 C 95.132 215.303 94.871 215.733 94.836 215.864 C 94.739 216.216 94.882 216.483 95.271 216.685 C 95.601 216.848 100.305 218.067 103.629 218.817 C 104.653 219.077 106.517 219.534 107.769 219.86 C 109.028 220.186 110.331 220.447 110.671 220.512 C 111.72 220.642 112.692 220.512 113.363 220.121 C 114.295 219.534 114.947 218.184 115.026 216.613 C 115.078 215.576 114.85 214.644 114.243 213.438 C 113.78 212.513 113.552 212.154 111.355 208.835 C 107.476 202.994 105.793 201.044 104.359 200.744 C 103.897 200.653 103.59 200.705 102.971 200.986 C 102.378 201.253 102.175 201.266 102.032 201.05 C 101.895 200.842 101.784 199.675 101.823 198.828 C 101.869 197.843 102.058 197.256 102.775 195.861 C 104.197 193.11 104.777 191.793 105.748 189.145 C 106.746 186.434 107.15 185.684 108.721 183.636 C 109.582 182.522 110.625 181.049 111.362 179.914 C 111.642 179.49 112.183 178.701 112.568 178.16 C 113.663 176.621 113.716 176.478 113.611 175.168 C 113.454 173.192 113.194 166.568 113.194 164.403 C 113.187 162.343 113.2 162.031 113.33 161.196 C 113.598 159.49 114.015 158.21 114.667 157.102 C 114.915 156.669 115.195 156.327 115.724 155.794 C 116.779 154.728 117.692 154.217 119.237 153.813 C 120.495 153.484 120.815 153.451 122.699 153.453 C 124.642 153.454 125.261 153.531 126.709 153.947 C 130.099 154.921 132.531 157.269 133.346 160.361 C 133.646 161.502 133.809 162.859 134.044 166.132 C 134.292 169.632 134.442 170.865 134.774 172.247 C 134.996 173.186 135.263 173.805 136.202 175.572 C 138.092 179.119 138.875 180.358 140.811 182.848 C 143.862 186.773 145.336 189.889 146.209 194.257 C 146.959 198.013 147.05 199.454 146.62 200.751 C 146.359 201.534 146.105 201.925 145.212 202.909 C 143.334 204.989 141.242 206.293 139.807 206.293 C 138.503 206.293 137.31 205.406 136.456 203.796 C 136.058 202.909 136.11 202.199 134.97 202.453 C 134.415 202.603 133.959 203.274 133.822 204.142 C 133.718 204.761 133.737 207.134 133.848 207.727 C 133.894 207.994 134.05 208.79 134.18 209.487 C 134.415 210.694 134.428 210.824 134.428 212.062 C 134.428 213.203 134.402 213.549 134.213 214.801 C 134.037 215.974 134.004 216.379 134.024 217.018 C 134.05 217.761 134.063 217.833 134.285 218.296 C 134.552 218.882 135.139 219.535 135.647 219.861 C 136.769 220.578 138.334 220.642 139.651 219.991 C 140.023 219.795 140.563 219.404 141.476 218.687 C 142.956 217.487 144.058 216.724 144.892 216.3 C 145.212 216.144 145.981 215.851 146.601 215.649 C 149.17 214.821 150.343 214.325 150.995 213.784 C 151.771 213.151 152.142 212.467 152.005 211.952 C 151.829 211.313 151.093 210.857 149.586 210.466 C 148.452 210.166 148.179 210.028 147.715 209.52 C 147.304 209.071 146.985 208.425 146.751 207.564 C 146.523 206.723 146.49 205.361 146.685 204.826 C 146.822 204.448 146.959 204.272 147.116 204.272 C 147.298 204.272 147.39 204.591 147.442 205.445 C 147.507 206.397 147.657 206.899 148.093 207.538 C 148.713 208.457 149.372 209.051 150.865 210.042 C 152.423 211.072 152.853 211.567 152.853 212.356 C 152.853 213.106 152.521 213.471 150.825 214.612 C 149.436 215.551 148.915 215.851 147.741 216.36 C 145.427 217.369 143.784 218.491 142.017 220.252 C 140.505 221.751 139.846 222.207 138.496 222.403 C 137.891 222.468 136.566 222.468 135.791 222.338 C 134.148 222.142 133.255 221.555 132.505 220.186 C 132.029 219.339 131.807 219.143 131.233 219.078 C 130.986 219.078 128.248 219.013 125.145 219.013 C 120.046 219.013 119.433 219.078 118.775 219.143 C 116.988 219.469 116.108 219.861 114.517 221.164 C 113.618 221.947 113.206 222.207 112.77 222.403 C 112.411 222.534 111.61 222.598 111.224 222.534 L 111.229 222.533 Z M 117.11 218.328 C 117.253 218.204 117.469 217.917 117.593 217.689 C 117.788 217.324 117.814 217.213 117.834 216.652 C 117.88 215.622 117.658 215.042 116.928 214.273 C 116.426 213.744 116.354 213.516 116.641 213.386 C 116.908 213.269 117.247 213.418 117.853 213.927 C 119.001 214.899 119.679 215.061 122.182 215.009 C 124.875 214.945 126.342 214.664 127.822 213.92 C 128.78 213.438 129.413 212.891 130.215 211.828 C 130.782 211.085 131.036 210.831 131.356 210.7 C 131.883 210.478 132.164 210.909 132.151 211.932 C 132.145 212.408 132.093 212.708 131.877 213.503 C 131.29 215.622 131.108 216.815 131.271 217.422 C 131.369 217.774 131.675 218.041 131.955 218.015 C 132.151 217.996 132.157 217.982 132.21 217.604 C 132.236 217.389 132.347 216.659 132.457 215.974 C 132.562 215.296 132.692 214.416 132.751 214.018 C 132.888 212.988 132.992 209.794 132.998 206.325 C 133.005 203.332 133.005 203.326 133.162 202.87 C 133.286 202.518 133.396 202.341 133.651 202.087 C 134.049 201.696 134.42 201.553 135.261 201.494 L 135.822 201.448 L 135.9 201.05 C 136.089 200.145 136.63 199.629 137.699 199.342 C 138.045 199.251 138.391 199.219 139.134 199.219 C 140.209 199.219 140.509 199.284 141.481 199.753 C 141.918 199.962 142.296 200.033 142.296 199.909 C 142.296 199.812 141.768 199.316 141.344 199.016 C 141.122 198.854 140.737 198.645 140.497 198.547 C 140.164 198.41 140.04 198.325 140.027 198.228 C 140.014 198.149 140.112 197.713 140.242 197.25 C 140.62 195.881 140.744 195.014 140.751 193.709 C 140.763 191.565 140.385 190.143 139.14 187.737 C 137.986 185.508 136.767 183.871 135.802 183.259 C 135.522 183.089 135.19 182.971 135.19 183.043 C 135.19 183.069 135.424 183.415 135.704 183.819 C 137.034 185.703 138.417 188.109 139.003 189.576 C 139.48 190.75 139.838 192.34 139.949 193.788 C 140.137 196.161 139.492 198.189 138.384 198.684 C 138.162 198.788 137.915 198.828 137.374 198.84 C 136.513 198.873 136.395 198.828 136.167 198.371 L 136.004 198.045 L 135.965 195.437 C 135.893 190.997 135.685 190.241 133.358 186.036 C 132.64 184.745 132.497 184.406 132.191 183.233 C 131.564 180.82 130.958 179.405 130.006 178.128 C 128.552 176.185 128.363 175.376 128.944 173.584 C 129.315 172.416 129.308 171.816 128.918 171.418 C 128.63 171.125 128.409 171.021 127.098 170.604 C 125.11 169.971 124.191 169.404 123.936 168.655 C 123.682 167.918 123.865 166.718 124.321 166.125 C 124.647 165.694 125.064 165.512 125.703 165.512 C 126.127 165.518 126.296 165.551 126.59 165.681 C 127.04 165.897 127.398 166.203 127.581 166.549 C 127.777 166.92 127.77 167.8 127.567 168.446 C 127.235 169.496 127.248 169.384 127.483 169.594 C 127.907 169.971 128.578 170.004 128.872 169.652 C 129.126 169.352 129.204 169.046 129.237 168.185 C 129.276 167.246 129.178 166.62 128.794 165.44 C 128.265 163.823 127.737 163.354 126.14 163.093 C 124.947 162.898 124.295 163.054 123.695 163.673 C 122.756 164.651 122.286 166.209 122.476 167.774 C 122.58 168.641 122.56 168.681 122.072 168.524 C 121.635 168.387 120.676 168.276 120.122 168.296 C 119.529 168.322 119.477 168.269 119.477 167.605 C 119.471 164.899 118.655 163.426 117.163 163.439 C 116.126 163.439 115.285 164.227 114.971 165.48 C 114.848 165.968 114.874 167.37 115.011 168.185 C 115.291 169.789 115.898 170.591 116.374 169.965 C 116.569 169.698 116.739 169.358 116.739 169.248 C 116.739 169.202 116.589 169.098 116.412 169.013 C 116.217 168.922 116.041 168.778 115.962 168.648 C 115.591 168.055 115.409 166.992 115.565 166.425 C 115.767 165.708 116.751 165.264 117.429 165.584 C 118.003 165.857 118.616 167.122 118.551 167.918 C 118.499 168.55 118.382 168.746 117.808 169.17 C 117.521 169.378 117.058 169.756 116.771 170.011 C 116.484 170.265 116.132 170.558 115.989 170.663 C 115.259 171.19 114.848 171.81 114.848 172.397 C 114.848 172.781 115.005 172.99 115.493 173.231 C 115.878 173.426 116.224 173.766 116.589 174.301 C 117.077 175.005 117.658 175.226 118.988 175.22 C 120.612 175.213 122.065 174.867 124.79 173.85 C 126.27 173.296 126.681 173.12 126.766 172.99 C 127.007 172.638 127.287 172.39 127.457 172.39 C 127.685 172.39 127.887 172.605 127.887 172.84 C 127.887 173.238 127.274 173.564 125.149 174.287 C 124.523 174.503 123.551 174.894 122.997 175.154 C 121.876 175.689 121.563 175.8 120.826 175.944 C 120.22 176.061 118.818 176.074 118.049 175.97 C 117.423 175.885 117.045 175.93 117.077 176.093 C 117.11 176.263 118.558 177.391 118.89 177.514 C 119.359 177.678 120.285 177.71 120.885 177.573 C 121.791 177.378 124.654 176.146 126.075 175.35 C 126.551 175.083 126.818 174.972 126.988 174.972 C 127.274 174.965 127.496 175.148 127.496 175.376 C 127.496 175.624 127.014 176.048 126.486 176.269 C 125.553 176.647 125.357 176.752 124.432 177.339 C 123.167 178.147 122.613 178.551 121.779 179.281 C 120.885 180.058 120.631 180.162 119.64 180.175 C 118.851 180.181 118.61 180.103 118.095 179.66 C 117.69 179.314 116.726 178.114 116.452 177.612 C 116.165 177.091 115.526 176.367 115.357 176.367 C 115.245 176.367 115.233 176.393 115.043 177.215 C 114.913 177.802 114.43 178.91 113.648 180.442 C 112.709 182.287 112.664 182.45 112.664 184.386 C 112.664 186.003 112.703 185.866 111.914 186.962 C 110.949 188.318 109.45 191.858 109.091 193.645 C 108.817 194.981 108.628 197.256 108.68 198.534 C 108.719 199.551 108.667 199.851 108.426 200.001 C 108.178 200.157 107.885 199.995 107.279 199.395 C 106.327 198.436 106.02 197.641 106.027 196.122 C 106.033 195.157 106.118 194.414 106.307 193.697 C 106.47 193.084 106.477 192.908 106.327 192.94 C 106.17 192.966 105.818 193.69 105.648 194.336 C 105.544 194.72 105.505 195.118 105.479 195.927 C 105.453 196.918 105.46 197.061 105.616 197.751 C 105.812 198.619 106.183 199.427 106.699 200.105 C 107.487 201.148 111.484 204.695 114.144 206.723 C 114.783 207.205 115.493 207.812 115.728 208.066 C 117.136 209.592 116.863 210.987 114.939 212.062 C 114.639 212.232 114.392 212.382 114.392 212.395 C 114.392 212.408 114.639 212.753 114.939 213.151 C 116.041 214.637 116.68 215.726 116.901 216.489 C 117.051 216.991 117.045 217.715 116.882 218.178 C 116.817 218.387 116.778 218.556 116.804 218.556 C 116.83 218.556 116.967 218.426 117.11 218.328 Z M 118.238 169.782 C 118.036 169.398 118.414 169.065 119.059 169.065 C 119.287 169.065 119.49 169.091 119.509 169.13 C 119.555 169.208 119.333 169.326 119.138 169.326 C 119.021 169.326 118.955 169.391 118.857 169.606 C 118.753 169.834 118.694 169.887 118.518 169.9 C 118.362 169.913 118.296 169.887 118.238 169.782 Z M 122.104 169.502 C 121.726 169.365 121.433 169.176 121.505 169.104 C 121.524 169.084 121.746 169.052 121.993 169.026 C 122.58 168.974 122.802 169.058 122.802 169.32 C 122.802 169.45 122.756 169.541 122.678 169.587 C 122.606 169.62 122.541 169.652 122.528 169.645 C 122.522 169.645 122.326 169.58 122.104 169.502 Z M 108.53 187.777 C 109.156 187.131 109.332 186.805 109.293 186.342 C 109.273 186.023 109.15 185.912 108.889 185.977 C 108.7 186.023 108.595 186.218 108.426 186.812 C 108.354 187.099 108.237 187.287 107.97 187.587 C 107.611 187.992 107.546 188.142 107.689 188.285 C 107.839 188.435 107.963 188.364 108.53 187.777 Z M 133.605 176.771 C 133.742 176.687 134.015 176.015 134.015 175.761 C 134.015 175.558 133.977 175.468 133.813 175.318 C 133.703 175.213 133.585 175.128 133.553 175.128 C 133.52 175.128 133.266 175.024 132.986 174.887 C 132.647 174.725 132.347 174.522 132.053 174.235 C 131.819 174.014 131.59 173.824 131.551 173.824 C 131.512 173.824 131.46 173.903 131.434 173.994 C 131.362 174.294 131.467 174.757 131.74 175.304 C 131.975 175.794 132.06 175.891 132.601 176.335 C 133.182 176.811 133.396 176.902 133.605 176.771 Z M 117.918 168.041 C 117.997 167.839 117.977 167.683 117.775 167.024 C 117.69 166.738 117.567 166.497 117.436 166.353 C 117.247 166.151 117.215 166.137 117.065 166.216 C 116.849 166.333 116.869 166.594 117.123 166.881 C 117.313 167.096 117.475 167.507 117.553 167.976 C 117.606 168.276 117.814 168.315 117.918 168.041 Z M 127.105 167.859 C 127.248 167.69 127.144 166.881 126.948 166.581 C 126.746 166.275 126.277 165.995 125.905 165.955 C 125.657 165.923 125.612 165.942 125.54 166.066 C 125.449 166.235 125.495 166.287 125.814 166.385 C 126.218 166.516 126.59 167.07 126.688 167.683 C 126.726 167.911 126.76 167.957 126.876 167.957 C 126.962 167.957 127.059 167.911 127.105 167.859 Z M 127.541 159.077 C 128.011 158.753 128.044 158.739 128.494 158.727 C 129.068 158.712 129.191 158.663 129.191 158.461 C 129.191 158.146 128.109 157.187 127.653 157.102 C 127.196 157.016 127.034 157.264 126.942 158.191 C 126.903 158.539 126.857 158.683 126.707 158.869 C 126.505 159.125 126.472 159.276 126.603 159.405 C 126.734 159.539 127.014 159.44 127.541 159.077 Z" style=""/>
</svg>