<?xml version="1.0" encoding="UTF-8" standalone="no"?>
<svg xmlns="http://www.w3.org/2000/svg" width="439.488" height="443.88">
  <path d="M219.744 443.88c121.359 0 219.744-99.37 219.744-221.94C439.488 99.368 341.103 0 219.744 0 98.387 0 0 99.368 0 221.94c0 122.57 98.387 221.94 219.744 221.94z"/>
  <path fill="#fff" d="M219.744 392.714c93.384 0 169.086-76.459 169.086-170.774 0-94.317-75.702-170.774-169.086-170.774-93.382 0-169.085 76.457-169.085 170.774 0 94.315 75.703 170.774 169.085 170.774z"/>
  <path d="m196.963 300.274 49.531-.102V261.69c0-10.438 4.866-20.3 17.886-28.841 13.019-8.537 49.364-25.861 49.364-71.409 0-45.55-38.167-76.858-70.25-83.5-32.078-6.642-66.835-2.272-91.5 24.75-22.087 24.197-26.741 43.337-26.741 85.565h49.491v-9.815c0-22.501 2.603-46.254 34.75-52.75 17.546-3.546 33.994 1.958 43.75 11.5 11.16 10.912 11.25 35.5-6.533 47.743l-27.896 18.979c-16.272 10.438-21.852 22.059-21.852 39.139v57.223zm-.325 70.418v-51.005h50.212v51.005h-50.212z"/>
</svg>